<?xml version="1.0" encoding="iso-8859-1"?>
<!DOCTYPE svg PUBLIC "-//W3C//DTD SVG 1.1//EN" "http://www.w3.org/Graphics/SVG/1.1/DTD/svg11.dtd">
<svg version="1.1"
    xmlns="http://www.w3.org/2000/svg"
    xmlns:xlink="http://www.w3.org/1999/xlink" x="0px" y="0px"
width="797.5999755859375px" height="540.7843627929688px" viewBox="0 0 797.5999755859375 540.7843627929688" xml:space="preserve">
    <title>Untitled VisBOL Design</title>
    <desc>Generated by the VisBOL design visualizer at http://visbol.org</desc>
    <g id="SvgjsG1005" transform="matrix(1 0 0 1 16 16)"></g>
    <g id="SvgjsG1006" transform="matrix(1 0 0 1 16 16)"></g>
    <g id="SvgjsG1009" transform="matrix(1 0 0 1 22 -268)"></g>
    <g id="SvgjsG1089" transform="matrix(1 0 0 1 22 -268)">
        <g id="SvgjsG1087" transform="translate(10 300)">
            <g id="SvgjsG1041" transform="matrix(1 0 0 1 100 109.328125)">
                <line id="SvgjsLine1040" x1="-48" y1="0" x2="633.6" y2="0" stroke="black" stroke-width="2px"></line>
                <g id="SvgjsG1014" data-original-title="" title="">
                    <path id="SvgjsPath1010" d="M0 38.4L0 9.6L48 9.6L38.4 0M48 9.6L38.4 19.2 " stroke="#03c03c" stroke-width="5px" stroke-linejoin="round" fill="none" transform="matrix(1 0 0 1 0 -38.4)"></path>
                    <text id="SvgjsText1011" font-family="Helvetica, Arial, sans-serif" text-anchor="middle" transform="matrix(1 0 0 1 24 -54.4)">
moo
                        <tspan id="SvgjsTspan1012" dy="20.8" x="0"></tspan>
                        <tspan id="SvgjsTspan1013" alignment-baseline="middle">pLacI</tspan>
                    </text>
                </g>
                <g id="SvgjsG1019" data-original-title="" title="">
                    <path id="SvgjsPath1015" d="M0 21.599999999999998L28.799999999999997 21.599999999999998C28.799999999999997 0 0 0 0 21.599999999999998z " stroke="black" fill="#966fd6" transform="matrix(1 0 0 1 112 -21.599999999999998)"></path>
                    <text id="SvgjsText1016" font-family="Helvetica, Arial, sans-serif" text-anchor="middle" transform="matrix(1 0 0 1 126.39999961853027 -37.599999999999994)">
                        <tspan id="SvgjsTspan1017" dy="20.8" x="0"></tspan>
                        <tspan id="SvgjsTspan1018" alignment-baseline="middle">BBa_J61101 RBS</tspan>
                    </text>
                </g>
                <g id="SvgjsG1024" data-original-title="" title="">
                    <path id="SvgjsPath1020" d="M0 0L33.6 0L48 14.399999999999999L33.6 28.799999999999997L0 28.799999999999997z " stroke="black" fill="#779ecb" transform="matrix(1 0 0 1 204.8 -14.399999999999999)"></path>
                    <text id="SvgjsText1021" font-family="Helvetica, Arial, sans-serif" text-anchor="middle" transform="matrix(1 0 0 1 228.8 -30.4)">
                        <tspan id="SvgjsTspan1022" dy="20.8" x="0"></tspan>
                        <tspan id="SvgjsTspan1023" alignment-baseline="middle">tetR</tspan>
                    </text>
                </g>
                <g id="SvgjsG1029" data-original-title="" title="">
                    <path id="SvgjsPath1025" d="M0 21.599999999999998L28.799999999999997 21.599999999999998C28.799999999999997 0 0 0 0 21.599999999999998z " stroke="black" fill="#966fd6" transform="matrix(1 0 0 1 316.8 -21.599999999999998)"></path>
                    <text id="SvgjsText1026" font-family="Helvetica, Arial, sans-serif" text-anchor="middle" transform="matrix(1 0 0 1 331.1999996185303 -37.599999999999994)">
                        <tspan id="SvgjsTspan1027" dy="20.8" x="0"></tspan>
                        <tspan id="SvgjsTspan1028" alignment-baseline="middle">BBa_J61101 RBS</tspan>
                    </text>
                </g>
                <g id="SvgjsG1034" data-original-title="" title="">
                    <path id="SvgjsPath1030" d="M0 0L33.6 0L48 14.399999999999999L33.6 28.799999999999997L0 28.799999999999997z " stroke="black" fill="#779ecb" transform="matrix(1 0 0 1 409.6 -14.399999999999999)"></path>
                    <text id="SvgjsText1031" font-family="Helvetica, Arial, sans-serif" text-anchor="middle" transform="matrix(1 0 0 1 433.6 -30.4)">
                        <tspan id="SvgjsTspan1032" dy="20.8" x="0"></tspan>
                        <tspan id="SvgjsTspan1033" alignment-baseline="middle">gfp</tspan>
                    </text>
                </g>
                <g id="SvgjsG1039" data-original-title="" title="">
                    <path id="SvgjsPath1035" d="M24 38.4L24 0M0 0L48 0 " stroke="#c23b22" stroke-width="5px" stroke-linejoin="round" fill="none" transform="matrix(1 0 0 1 521.6 -38.4)"></path>
                    <text id="SvgjsText1036" font-family="Helvetica, Arial, sans-serif" text-anchor="middle" transform="matrix(1 0 0 1 545.6 -54.4)">
                        <tspan id="SvgjsTspan1037" dy="20.8" x="0"></tspan>
                        <tspan id="SvgjsTspan1038" alignment-baseline="middle">ECK120033736</tspan>
                    </text>
                </g>
                <text id="SvgjsText1042" font-family="Helvetica, Arial, sans-serif" text-anchor="left" transform="matrix(1 0 0 1 -100 -100)">
                    <tspan id="SvgjsTspan1043" dy="20.8" x="0"></tspan>
                    <tspan id="SvgjsTspan1044" alignment-baseline="middle">LacI Inverter</tspan>
                </text>
            </g>
            <g id="SvgjsG1058" transform="matrix(1 0 0 1 100 281.0562515258789)">
                <line id="SvgjsLine1057" x1="-48" y1="0" x2="224" y2="0" stroke="black" stroke-width="2px"></line>
                <g id="SvgjsG1050" data-original-title="" title="">
                    <g id="SvgjsG1046" transform="matrix(1 0 0 1 0 -24)">
                        <rect id="SvgjsRect1045" width="48" height="48" stroke="black" fill="#cceeee"></rect>
                    </g>
                    <text id="SvgjsText1047" font-family="Helvetica, Arial, sans-serif" text-anchor="middle" transform="matrix(1 0 0 1 24 -40)">
                        <tspan id="SvgjsTspan1048" dy="20.8" x="0"></tspan>
                        <tspan id="SvgjsTspan1049" alignment-baseline="middle">TetR Inverter</tspan>
                    </text>
                </g>
                <g id="SvgjsG1056" data-original-title="" title="">
                    <g id="SvgjsG1052" transform="matrix(1 0 0 1 112 -24)">
                        <rect id="SvgjsRect1051" width="48" height="48" stroke="black" fill="#cceeee"></rect>
                    </g>
                    <text id="SvgjsText1053" font-family="Helvetica, Arial, sans-serif" text-anchor="middle" transform="matrix(1 0 0 1 136 -40)">
                        <tspan id="SvgjsTspan1054" dy="20.8" x="0"></tspan>
                        <tspan id="SvgjsTspan1055" alignment-baseline="middle">LacI Inverter</tspan>
                    </text>
                </g>
                <text id="SvgjsText1059" font-family="Helvetica, Arial, sans-serif" text-anchor="left" transform="matrix(1 0 0 1 -100 -100)">
                    <tspan id="SvgjsTspan1060" dy="20.8" x="0"></tspan>
                    <tspan id="SvgjsTspan1061" alignment-baseline="middle">LacI/TetR Toggle Swicth</tspan>
                </text>
            </g>
            <g id="SvgjsG1083" transform="matrix(1 0 0 1 100 462.3843765258789)">
                <line id="SvgjsLine1082" x1="-48" y1="0" x2="428.8" y2="0" stroke="black" stroke-width="2px"></line>
                <g id="SvgjsG1066" data-original-title="" title="">
                    <path id="SvgjsPath1062" d="M0 38.4L0 9.6L48 9.6L38.4 0M48 9.6L38.4 19.2 " stroke="#03c03c" stroke-width="5px" stroke-linejoin="round" fill="none" transform="matrix(1 0 0 1 0 -38.4)"></path>
                    <text id="SvgjsText1063" font-family="Helvetica, Arial, sans-serif" text-anchor="middle" transform="matrix(1 0 0 1 24 -54.4)">
                        <tspan id="SvgjsTspan1064" dy="20.8" x="0"></tspan>
                        <tspan id="SvgjsTspan1065" alignment-baseline="middle">pTetR</tspan>
                    </text>
                </g>
                <g id="SvgjsG1071" data-original-title="" title="">
                    <path id="SvgjsPath1067" d="M0 21.599999999999998L28.799999999999997 21.599999999999998C28.799999999999997 0 0 0 0 21.599999999999998z " stroke="black" fill="#966fd6" transform="matrix(1 0 0 1 112 -21.599999999999998)"></path>
                    <text id="SvgjsText1068" font-family="Helvetica, Arial, sans-serif" text-anchor="middle" transform="matrix(1 0 0 1 126.39999961853027 -37.599999999999994)">
                        <tspan id="SvgjsTspan1069" dy="20.8" x="0"></tspan>
                        <tspan id="SvgjsTspan1070" alignment-baseline="middle">BBa_J61101 RBS</tspan>
                    </text>
                </g>
                <g id="SvgjsG1076" data-original-title="" title="">
                    <path id="SvgjsPath1072" d="M0 0L33.6 0L48 14.399999999999999L33.6 28.799999999999997L0 28.799999999999997z " stroke="black" fill="#779ecb" transform="matrix(1 0 0 1 204.8 -14.399999999999999)"></path>
                    <text id="SvgjsText1073" font-family="Helvetica, Arial, sans-serif" text-anchor="middle" transform="matrix(1 0 0 1 228.8 -30.4)">
                        <tspan id="SvgjsTspan1074" dy="20.8" x="0"></tspan>
                        <tspan id="SvgjsTspan1075" alignment-baseline="middle">lacI</tspan>
                    </text>
                </g>
                <g id="SvgjsG1081" data-original-title="" title="">
                    <path id="SvgjsPath1077" d="M24 38.4L24 0M0 0L48 0 " stroke="#c23b22" stroke-width="5px" stroke-linejoin="round" fill="none" transform="matrix(1 0 0 1 316.8 -38.4)"></path>
                    <text id="SvgjsText1078" font-family="Helvetica, Arial, sans-serif" text-anchor="middle" transform="matrix(1 0 0 1 340.8 -54.4)">
                        <tspan id="SvgjsTspan1079" dy="20.8" x="0"></tspan>
                        <tspan id="SvgjsTspan1080" alignment-baseline="middle">ECK120029600</tspan>
                    </text>
                </g>
                <text id="SvgjsText1084" font-family="Helvetica, Arial, sans-serif" text-anchor="left" transform="matrix(1 0 0 1 -100 -100)">
                    <tspan id="SvgjsTspan1085" dy="20.8" x="0"></tspan>
                    <tspan id="SvgjsTspan1086" alignment-baseline="middle">TetR Inverter</tspan>
                </text>
            </g>
            <rect id="SvgjsRect1088" width="765.5999755859375" height="508.78436279296875" transform="matrix(1 0 0 1 -16 -16)" rx="8" ry="8" stroke="black" stroke-width="2px" stroke-linejoin="round" fill="none"></rect>
        </g>
    </g>
    <defs id="SvgjsDefs1000"></defs>
</svg>

